<svg xmlns="http://www.w3.org/2000/svg" id="Group_1" data-name="Group 1" width="291.958" height="23.159" viewBox="0 0 291.958 23.159"><path id="Path_6" data-name="Path 6" d="M252.261,397.115c-10.513,0-15.868-4.588-20.593-8.636-4.266-3.656-7.636-6.543-14.837-6.543s-10.571,2.887-14.838,6.543c-4.724,4.048-10.079,8.636-20.593,8.636s-15.868-4.588-20.593-8.636c-4.266-3.656-7.635-6.543-14.836-6.543s-10.57,2.887-14.836,6.543c-4.724,4.048-10.079,8.636-20.593,8.636s-15.866-4.588-20.59-8.636c-4.265-3.656-7.634-6.543-14.834-6.543s-10.57,2.887-14.836,6.543c-4.724,4.048-10.079,8.636-20.592,8.636S23.823,392.527,19.1,388.48c-4.266-3.656-7.635-6.543-14.836-6.543a4,4,0,1,1,0-7.98c10.513,0,15.868,4.588,20.593,8.636,4.266,3.656,7.636,6.543,14.837,6.543s10.57-2.887,14.836-6.542c4.724-4.049,10.079-8.636,20.592-8.636s15.866,4.589,20.591,8.636c4.265,3.656,7.634,6.542,14.834,6.542s10.571-2.887,14.836-6.542c4.724-4.049,10.079-8.636,20.592-8.636s15.868,4.588,20.593,8.636c4.266,3.655,7.636,6.542,14.836,6.542s10.571-2.887,14.837-6.542c4.725-4.049,10.08-8.636,20.593-8.636s15.869,4.588,20.593,8.636c4.266,3.655,7.635,6.542,14.836,6.542s10.573-2.887,14.84-6.543c4.725-4.048,10.08-8.636,20.595-8.636a4,4,0,1,1,0,7.98c-7.2,0-10.573,2.887-14.84,6.543C268.131,392.527,262.776,397.115,252.261,397.115Z" transform="translate(0 -373.957)" fill="#7ad3c1"></path></svg>