<svg xmlns="http://www.w3.org/2000/svg" width="47.217" height="184.255" viewBox="0 0 47.217 184.255"><g id="Group_1864" data-name="Group 1864" transform="translate(47.217) rotate(90)"><g id="Group_1834" data-name="Group 1834"><path id="Path_6" data-name="Path 6" d="M25.053,388.572c6.635,0,10.014-2.9,13-5.45,2.692-2.307,4.819-4.129,9.364-4.129s6.672,1.822,9.364,4.129c2.981,2.555,6.361,5.45,13,5.45s10.014-2.9,13-5.45c2.692-2.307,4.819-4.129,9.363-4.129s6.671,1.822,9.363,4.129c2.981,2.555,6.361,5.45,13,5.45s10.013-2.9,12.994-5.45c2.692-2.307,4.818-4.129,9.362-4.129s6.671,1.822,9.363,4.129c2.981,2.555,6.361,5.45,13,5.45s10.015-2.9,13-5.45c2.692-2.307,4.819-4.129,9.363-4.129a2.524,2.524,0,1,0,0-5.036c-6.635,0-10.014,2.9-13,5.45-2.692,2.307-4.819,4.129-9.364,4.129s-6.671-1.822-9.363-4.129c-2.981-2.555-6.361-5.45-13-5.45s-10.013,2.9-12.995,5.45c-2.692,2.307-4.818,4.129-9.361,4.129s-6.671-1.822-9.363-4.129c-2.981-2.555-6.361-5.45-13-5.45s-10.014,2.9-13,5.45c-2.692,2.307-4.819,4.129-9.363,4.129s-6.672-1.822-9.364-4.129c-2.982-2.555-6.361-5.45-13-5.45s-10.015,2.9-13,5.45c-2.692,2.307-4.819,4.129-9.363,4.129s-6.672-1.822-9.365-4.129c-2.982-2.555-6.362-5.45-13-5.45a2.524,2.524,0,1,0,0,5.036c4.546,0,6.672,1.822,9.365,4.129C15.037,385.677,18.417,388.572,25.053,388.572Z" transform="translate(0 -373.957)" fill="#6285d8"></path></g><g id="Group_1835" data-name="Group 1835" transform="translate(0 32.602)"><path id="Path_6-2" data-name="Path 6" d="M25.053,388.572c6.635,0,10.014-2.9,13-5.45,2.692-2.307,4.819-4.129,9.364-4.129s6.672,1.822,9.364,4.129c2.981,2.555,6.361,5.45,13,5.45s10.014-2.9,13-5.45c2.692-2.307,4.819-4.129,9.363-4.129s6.671,1.822,9.363,4.129c2.981,2.555,6.361,5.45,13,5.45s10.013-2.9,12.994-5.45c2.692-2.307,4.818-4.129,9.362-4.129s6.671,1.822,9.363,4.129c2.981,2.555,6.361,5.45,13,5.45s10.015-2.9,13-5.45c2.692-2.307,4.819-4.129,9.363-4.129a2.524,2.524,0,1,0,0-5.036c-6.635,0-10.014,2.9-13,5.45-2.692,2.307-4.819,4.129-9.364,4.129s-6.671-1.822-9.363-4.129c-2.981-2.555-6.361-5.45-13-5.45s-10.013,2.9-12.995,5.45c-2.692,2.307-4.818,4.129-9.361,4.129s-6.671-1.822-9.363-4.129c-2.981-2.555-6.361-5.45-13-5.45s-10.014,2.9-13,5.45c-2.692,2.307-4.819,4.129-9.363,4.129s-6.672-1.822-9.364-4.129c-2.982-2.555-6.361-5.45-13-5.45s-10.015,2.9-13,5.45c-2.692,2.307-4.819,4.129-9.363,4.129s-6.672-1.822-9.365-4.129c-2.982-2.555-6.362-5.45-13-5.45a2.524,2.524,0,1,0,0,5.036c4.546,0,6.672,1.822,9.365,4.129C15.037,385.677,18.417,388.572,25.053,388.572Z" transform="translate(0 -373.957)" fill="#6285d8"></path></g></g></svg>