<svg xmlns="http://www.w3.org/2000/svg" id="Group_1836" data-name="Group 1836" width="94.879" height="24.314" viewBox="0 0 94.879 24.314"><g id="Group_1834" data-name="Group 1834"><path id="Path_6" data-name="Path 6" d="M81.979,381.483a9.276,9.276,0,0,1-6.692-2.806c-1.386-1.188-2.481-2.126-4.822-2.126s-3.435.938-4.822,2.126a9.382,9.382,0,0,1-13.384,0c-1.386-1.188-2.481-2.126-4.821-2.126s-3.435.938-4.821,2.126a9.381,9.381,0,0,1-13.383,0c-1.386-1.188-2.481-2.126-4.821-2.126s-3.435.938-4.821,2.126a9.382,9.382,0,0,1-13.384,0c-1.386-1.188-2.481-2.126-4.821-2.126a1.3,1.3,0,1,1,0-2.593,9.276,9.276,0,0,1,6.692,2.806c1.386,1.188,2.481,2.126,4.822,2.126s3.435-.938,4.821-2.126a9.381,9.381,0,0,1,13.383,0c1.386,1.188,2.481,2.126,4.821,2.126s3.435-.938,4.821-2.126a9.381,9.381,0,0,1,13.384,0c1.386,1.188,2.482,2.126,4.821,2.126s3.435-.938,4.822-2.126a9.382,9.382,0,0,1,13.385,0c1.386,1.188,2.481,2.126,4.821,2.126s3.436-.938,4.823-2.126a9.277,9.277,0,0,1,6.693-2.806,1.3,1.3,0,1,1,0,2.593c-2.341,0-3.436.938-4.823,2.126A9.276,9.276,0,0,1,81.979,381.483Z" transform="translate(0 -373.957)" fill="#7ad3c1"></path></g><g id="Group_1835" data-name="Group 1835" transform="translate(0 16.788)"><path id="Path_6-2" data-name="Path 6" d="M81.979,381.483a9.276,9.276,0,0,1-6.692-2.806c-1.386-1.188-2.481-2.126-4.822-2.126s-3.435.938-4.822,2.126a9.382,9.382,0,0,1-13.384,0c-1.386-1.188-2.481-2.126-4.821-2.126s-3.435.938-4.821,2.126a9.381,9.381,0,0,1-13.383,0c-1.386-1.188-2.481-2.126-4.821-2.126s-3.435.938-4.821,2.126a9.382,9.382,0,0,1-13.384,0c-1.386-1.188-2.481-2.126-4.821-2.126a1.3,1.3,0,1,1,0-2.593,9.276,9.276,0,0,1,6.692,2.806c1.386,1.188,2.481,2.126,4.822,2.126s3.435-.938,4.821-2.126a9.381,9.381,0,0,1,13.383,0c1.386,1.188,2.481,2.126,4.821,2.126s3.435-.938,4.821-2.126a9.381,9.381,0,0,1,13.384,0c1.386,1.188,2.482,2.126,4.821,2.126s3.435-.938,4.822-2.126a9.382,9.382,0,0,1,13.385,0c1.386,1.188,2.481,2.126,4.821,2.126s3.436-.938,4.823-2.126a9.277,9.277,0,0,1,6.693-2.806,1.3,1.3,0,1,1,0,2.593c-2.341,0-3.436.938-4.823,2.126A9.276,9.276,0,0,1,81.979,381.483Z" transform="translate(0 -373.957)" fill="#7ad3c1"></path></g></svg>